# xmcd
#
# Track frame offsets:
#	150
#	15832
#	35190
#	51565
#	70165
#	89329
#	110010
#	127632
#	148536
#	164718
#
# Disc length: 2526 seconds
#
# Revision: 0
# Processed by: cddbd v1.5.1PL2 Copyright (c) Steve Scherf et al.
# Submitted via: dBpowerAMP V4.0
#
DISCID=8909dc0a
DTITLE=Eric Roberson - The Appetizer
DYEAR=1900
DGENRE=Soul
TTITLE0=NZU
TTITLE1=What I Gotta Do?
TTITLE2=Painkiller
TTITLE3=Hesitation
TTITLE4=Just A Dream
TTITLE5=Softest Lips
TTITLE6=Momma Told Me
TTITLE7=The Moon
TTITLE8=We Can't Pretend
TTITLE9=For Da Love Of Da Game
EXTD=Eric Roberson - The Appetizer
EXTT0=
EXTT1=
EXTT2=
EXTT3=
EXTT4=
EXTT5=
EXTT6=
EXTT7=
EXTT8=
EXTT9=
PLAYORDER=
